samantha-11.sfdir
StartChar: gClef
Encoding: 57424 57424 17
Width: 1000
Flags: H
LayerCount: 2
Fore
SplineSet
336 605 m 0
 354.01674686 627.986883925 360 642 370 674 c 0
 381.334960938 710.272460938 385 726.9921875 385 792 c 3
 385 804.165039062 376.000176593 833.000128434 368 844 c 0
 360.108398438 854.850585938 337 871 315 871 c 0
 298.96875 871 276 840 270 819 c 0
 251.206183273 753.221641455 247 724 247 660 c 0
 247 620 256 548 263 508 c 1
 288 542 307 568 336 605 c 0
344 -428 m 0
 379.093696978 -395.099659083 398.999359749 -364.999644298 419 -329 c 0
 426.770507812 -315.013671875 443 -264 445 -245 c 1
 402 -256 347.010637094 -260 300 -260 c 3
 252 -260 181 -246 149 -224 c 0
 101.219778128 -191.151097463 83 -166 62 -134 c 0
 32.6276580609 -89.2421456165 25 -43 25 0 c 3
 25 98 32 149 59 224 c 0
 80.5320105599 283.811140444 102.000000001 319 140 371 c 0
 164.427081007 404.426531905 204 451 230 484 c 1
 198 585 189 622 189 723 c 0
 189 779 202.476764731 821.688985334 233 869 c 0
 253 900 286 905 316 905 c 3
 345.017236257 905 366 881 387 852 c 0
 397.909713144 836.934205659 411 805 411 742 c 7
 411 706.9857172 402 611 382 553 c 4
 357.769000454 482.730101316 344 464 300 401 c 1
 314 370 323.000121519 348.000052079 335 320 c 0
 346.638671875 292.842773438 351 279 358 249 c 1
 380 252 397.579101562 254 415 254 c 3
 454.05124838 254 467.200389182 246.719844327 479 242 c 0
 519 226 546.616210938 206.258789062 572 174 c 0
 620 113 629 52.0089278598 629 -4 c 3
 629 -54.0099990002 617.344481098 -87.707693475 602 -123 c 0
 592 -146 578.806893934 -170.900691924 551 -195 c 0
 536 -208 504 -226 470 -242 c 1
 466 -300 438.521245566 -360.021322324 427 -377 c 0
 408 -405 390.607029389 -427.571529432 362 -453 c 0
 326 -485 277.11234224 -521 237 -521 c 3
 182 -521 156.196289062 -517.697265625 110 -488 c 0
 82 -470 69 -436 69 -402 c 3
 69 -379 85 -361 108 -348 c 0
 122.489053273 -339.810535106 140 -336 162 -336 c 3
 185 -336 198.937906217 -342.07066794 216 -357 c 0
 232 -371 240 -384 240 -405 c 3
 240 -415.198242188 229 -419 229 -429 c 3
 229 -445 252 -454 268 -454 c 3
 303 -454 328 -443 344 -428 c 0
212 160 m 0
 231 184 254.875976562 202.202148438 284 220 c 0
 302.000044758 230.999926759 321 238 340 246 c 1
 334 270 328 286 317 313 c 0
 308.521267233 333.811434974 302 355 287 385 c 1
 236 328 189.442382812 280.733398438 158 224 c 0
 112 141 85 79.0063288604 85 0 c 0
 85 -58.0086200491 90.2679329274 -110.811332753 124 -159 c 0
 166 -219 236.9470753 -238 322 -238 c 3
 365 -238 394 -234 444 -224 c 1
 437 -96 430.415454104 -72.423482274 418 0 c 0
 406 70 361 170 361 170 c 1
 324 156 293.115421576 140.875773763 264 114 c 0
 238 90 218 49 218 14 c 3
 218 -37 229 -68 272 -86 c 1
 270 -109 l 1
 226 -93 198 -80 185 -54 c 0
 169.966703622 -23.9334072433 168 6 168 32 c 3
 168 72.049968789 175.483881719 113.874376908 212 160 c 0
392 176 m 1
 421 102 446 34 452 -32 c 0
 458.097580157 -99.0733817271 467 -136 469 -219 c 1
 518 -191 529.733396834 -184.708786517 545 -171 c 0
 594 -127 606 -51.0458984375 606 -7 c 3
 606 54 571.448073435 103.492791576 544 128 c 0
 516 153 478 170 392 176 c 1
EndSplineSet
EndChar
StartChar: cClef
Encoding: 57436 57436 1
Width: 516
Flags: W
HStem: -500 21G<0 33 86 212> -453 9<341.534 372.22> -133 102<212 338.573> 31 102<212 338.573> 444 9<341.534 372.22> 480 20G<0 33 86 212>
VStem: 0 33<-500 500> 86 126<-500 -133 -31 31 133 500> 291 25<-425.27 -325.751 325.751 425.27> 353 92<-180.557 -96.5 96.5 180.557> 392 72<-423.14 -348.5 348.5 423.14>
LayerCount: 2
Fore
SplineSet
212 -500 m 1xffc0
 86 -500 l 1
 86 500 l 1
 212 500 l 1
 212 133 l 1
 314 132 l 2
 314 132 330 133 339 140 c 0
 351.25390625 149.53125 353 155 353 160 c 3xffc0
 353 189.017578125 342 200 324 240 c 0
 309.826171875 271.498046875 304.741210938 288.940429688 297 323 c 0
 292 345 291 366.541015625 291 394 c 3
 291 406 300 424 308 432 c 0
 320.589678312 444.589678312 340.96875 453 357 453 c 3
 369.297851562 453 409.559570312 452.490234375 428 437 c 0
 453 416 464 395.14453125 464 364 c 3
 464 333 442 305 414 305 c 3
 383.983398438 305 360 323.909179688 360 346 c 3
 360 358.041992188 361 368 375 377 c 0
 388.923828125 385.951171875 392 391.721679688 392 408 c 3xffa0
 392 422.036132812 381 434 375 438 c 0
 368.501953125 442.33203125 364.369140625 444 352 444 c 3
 336 444 316 408.486832981 316 399 c 3
 316 370 318.908203125 356.296875 327 330 c 0
 331 317 339.409179688 294.650390625 360 272 c 0
 390 239 404.56640625 213.7578125 417 192 c 0
 437 157 445 134.018554688 445 107 c 3
 445 86 438 61 426 55 c 0
 389.590820312 36.7958984375 372 31 338 31 c 2
 212 31 l 1
 212 -31 l 1
 338 -31 l 2
 372 -31 389.590820312 -36.7958984375 426 -55 c 0
 438 -61 445 -86 445 -107 c 3xffc0
 445 -134.018554688 437 -157 417 -192 c 0
 404.56640625 -213.7578125 390 -239 360 -272 c 0
 339.409179688 -294.650390625 331 -317 327 -330 c 0
 318.908203125 -356.296875 316 -370 316 -399 c 3
 316 -408.487304688 336 -444 352 -444 c 3
 364.369140625 -444 368.501953125 -442.33203125 375 -438 c 0
 381 -434 392 -422.036132812 392 -408 c 3
 392 -391.721679688 388.923828125 -385.951171875 375 -377 c 0
 361 -368 360 -358.041992188 360 -346 c 3
 360 -323.909179688 383.983398438 -305 414 -305 c 3
 442 -305 464 -333 464 -364 c 3xffa0
 464 -395.14453125 453 -416 428 -437 c 0
 409.559570312 -452.490234375 369.297851562 -453 357 -453 c 3
 340.96875 -453 320.58984375 -444.58984375 308 -432 c 0
 300 -424 291 -406 291 -394 c 3
 291 -366.541015625 292 -345 297 -323 c 0
 304.741210938 -288.940429688 309.826171875 -271.498046875 324 -240 c 0
 342 -200 353 -189.017578125 353 -160 c 3
 353 -155 351.25390625 -149.53125 339 -140 c 0
 330 -133 314 -132 314 -132 c 2
 212 -133 l 1
 212 -500 l 1xffc0
0 -500 m 1
 0 500 l 5
 33 500 l 1
 33 -500 l 1
 0 -500 l 1
EndSplineSet
EndChar
StartChar: fClef
Encoding: 57442 57442 5
Width: 1306
Flags: HW
LayerCount: 2
Fore
SplineSet
175 -452 m 7
 170.876953125 -452 164 -450 164 -444 c 7
 164 -438 167 -436 171 -434 c 4
 235.031242374 -401.984378813 274.744678552 -376.711989564 312 -344 c 0
 353 -308 373 -271 392 -232 c 0
 413.567492857 -187.729883083 433 -133 433 -68 c 3
 433 -14 429.587114527 28.1652671029 413 80 c 0
 405 105 383 147 355 168 c 0
 339 180 307.018512172 192 280 192 c 3
 232.957466055 192 210 185 189 178 c 0
 156.287617024 167.095872341 92 140 92 104 c 3
 92 88.9667036216 92 80 100 72 c 0
 109.219544457 62.7804555427 119 58 152 47 c 0
 171.209372712 40.5968757626 192 18 192 -4 c 3
 192 -20.0312195419 180 -43 168 -54 c 0
 151.320105878 -69.2899029453 127.019223663 -79 101 -79 c 3
 73 -79 55.722279969 -65.1926772879 44 -48 c 0
 29 -26 26 10 26 30 c 3
 26 69 47.0175444711 106.982456731 75 134 c 0
 104 162 131.901998507 182.247213699 172 198 c 0
 200 209 244 216 283 216 c 3
 354.007041904 216 400 201.000000001 444 176 c 0
 463.845714938 164.724025603 502.139648438 128.51171875 520 98 c 0
 544 57 564 0.0302960768767 564 -66 c 3
 564 -130.007812023 548.984884624 -189.990347422 526 -226 c 0
 466 -320 435.628176245 -345.429235444 397 -371 c 0
 326 -418 269.751953125 -452 175 -452 c 7
696 154 m 3
 719.021484375 154 742 129.022460938 742 107 c 3
 742 86 719.021484375 60 696 60 c 3
 669.98046875 60 650 83 650 107 c 3
 650 131.020507812 674 154 696 154 c 3
696 -88 m 3
 719.021484375 -88 742 -112.977539062 742 -135 c 3
 742 -156 719.021484375 -182 696 -182 c 3
 669.98046875 -182 650 -159 650 -135 c 3
 650 -110.979492188 674 -88 696 -88 c 3
EndSplineSet
EndChar
StartChar: timeSig0
Encoding: 57472 57472 15
Width: 419
Flags: HW
HStem: -244.75 25.8018<141.451 201.571> 190.198 25.8018<140.637 201.571>
VStem: 1 103<-130.666 103.007> 238 101<-132.515 103.403>
LayerCount: 2
Fore
SplineSet
171 190.198242188 m 0
 122 190.198242188 104 124.224609375 104 -14 c 0
 104 -148.5390625 122 -218.948242188 171 -218.948242188 c 0
 221 -218.948242188 238 -150.5390625 238 -16 c 4
 238 122.224609375 221 190.198242188 171 190.198242188 c 0
1 -14.375 m 0
 1 46.443359375 15 98.0478515625 42 141.358398438 c 0
 74 191.119140625 116 216 171 216 c 0
 226 216 268 191.119140625 299 141.358398438 c 0
 325 98.0478515625 339 46.443359375 339 -14.375 c 0
 339 -75.193359375 325 -126.797851562 299 -170.108398438 c 0
 268 -219.869140625 226 -244.75 171 -244.75 c 0
 116 -244.75 74 -219.869140625 42 -170.108398438 c 0
 15 -126.797851562 1 -75.193359375 1 -14.375 c 0
EndSplineSet
EndChar
StartChar: timeSig1
Encoding: 57473 57473 12
Width: 248
Flags: W
HStem: 0 22<38 43 220.5 237 38 43> 480 20G<86 187 187 187>
VStem: 86 101<47 49 49 410 410 410>
LayerCount: 2
Fore
SplineSet
103 50 m 2
 102 419 l 1
 29 420 l 1
 29 420 29 431 29 441 c 1
 62 440 77.4475496194 440.149183206 98 447 c 0
 110 451 118 456 128 466 c 1
 188 466 l 1
 187 49 l 2
 186.956835557 31.0004273558 185 26 237 22 c 1
 237 0 l 1
 38 0 l 1
 38 22 l 1
 90 21 102.33984375 34.6455078125 103 50 c 2
EndSplineSet
EndChar
StartChar: timeSig2
Encoding: 57474 57474 37
Width: 397
Flags: W
HStem: -232 115<138 306> 196 27<106.783 195.366>
VStem: 3 85<122.376 177.108> 215 134<35.068 168>
LayerCount: 2
Fore
SplineSet
0 -232 m 1
 0 -178 l 1
 157 -10 l 1
 178 11 177.875242949 11.0799209211 194 36 c 0
 205 53 215 78 215 98 c 3
 215 121 212.638173326 162.702283343 202 176 c 0
 190 191 176.02629759 196 157 196 c 3
 134 196 117.369316877 190.246211251 105 182 c 0
 93 174 88 163 88 152 c 3
 88 140 91.8935546875 143.228515625 104 140 c 0
 119 136 124.330078125 140.334960938 139 133 c 0
 147 129 152 116.029386366 152 99 c 3
 152 89 152.550126333 68.7000842221 132 55 c 0
 126 51 98 47 82 47 c 3
 58 47 38.0006800426 53.0007650807 20 69 c 0
 8.5908203125 79.140625 3 106 3 121 c 3
 3 145 22 186.000976562 54 202 c 4
 76.8037109375 213.401367188 108 223 158 223 c 3
 205 223 265 218 301 192 c 0
 337 166 349 139 349 94 c 3
 349 68 339 34 325 15 c 0
 307.705078125 -8.4716796875 290 -21 262 -34 c 1
 266.561523438 -30.298828125 173.922794923 -87.8495352676 138 -117 c 1
 306 -116 l 1
 313 -65 l 1
 353 -68 l 1
 349 -93 346.123046875 -115.014648438 343 -140 c 0
 340 -164 339 -204 339 -229 c 1
 0 -232 l 1
EndSplineSet
EndChar
StartChar: timeSig3
Encoding: 57475 57475 38
Width: 391
Flags: HW
HStem: -235 29<91.3593 189.33> 80 91<103.014 150.983> 210 23<111.245 184.235>
VStem: 0 91<-202.023 -129> 34 69<131.5 190.5> 226 110<53.913 175.561> 228 115<-170.568 -41.5436>
LayerCount: 2
Fore
SplineSet
0 -147 m 3xf2
 0 -111 6 -103 21 -92 c 0
 29.72265625 -85.603515625 54 -73 74 -73 c 3
 97 -73 118 -89 126 -97 c 0
 136 -107 138 -122 138 -136 c 3
 138 -152 140.598632812 -151.69140625 128 -162 c 0
 117 -171 116.198242188 -161.801757812 106 -172 c 0
 103 -175 91 -177 91 -185 c 3
 91 -203 89.6572265625 -196.087890625 104 -200 c 0
 126 -206 131 -206 154 -206 c 3
 178 -206 193 -193 205 -173 c 0
 221.750976562 -145.08203125 228 -139 228 -107 c 3xf2
 228 -81 214.724609375 -51.216796875 199 -31 c 0
 185 -13 187 -5 164 7 c 1
 163 30 l 1
 188 39 190.567382812 39.3935546875 207 57 c 0
 221 72 226 95 226 115 c 3
 226 137 214 161 204 176 c 0
 188.697265625 198.953125 174 210 158 210 c 3
 139 210 131 210 119 203 c 0
 104.833007812 194.736328125 103 196 103 185 c 3
 103 173 122 175 134 171 c 0
 142.950195312 168.016601562 149 164 155 157 c 0
 161 150 163 137 163 127 c 3
 163 113 150.708007812 100.471679688 144 96 c 0
 135 90 114 80 96 80 c 3
 75 80 70.1103515625 80.8896484375 52 99 c 0
 34 117 34 121 34 142 c 3
 34 169 60.888671875 187.131835938 81 204 c 0
 112 230 137 233 163 233 c 3
 199 233 293.609375 220.678710938 313 196 c 4
 335 168 336 156 336 113 c 3xec
 336 90 329.868164062 71.0986328125 318 50 c 0
 309 34 302 32 291 16 c 1
 308 -1 304.946289062 -9.03515625 318 -29 c 0
 335 -55 343 -75 343 -106 c 3
 343 -132.01953125 331.966796875 -171.963867188 303 -199 c 0
 273 -227 225.02734375 -235 153 -235 c 3
 95 -235 61.4443359375 -233.137695312 40 -218 c 0
 6 -194 0 -189.047851562 0 -147 c 3xf2
EndSplineSet
EndChar
StartChar: timeSig4
Encoding: 57476 57476 28
Width: 436
Flags: W
HStem: -232 39<118 183.813 285.188 343> -124 38<48 164 281 336> 237 20G<270.5 280.571>
VStem: 164 117<-84 37.9026> 184 97<-186.811 -125>
LayerCount: 2
Fore
SplineSet
164 23 m 1xf0
 189 40 214.494140625 59.494140625 235 80 c 0
 256 101 266 120 281 149 c 1xe8
 281 -84 l 1xf0
 336 -84 l 1
 336 -125 l 1
 281 -125 l 1
 281 -168 l 2
 280 -177 281 -183 285 -187 c 0
 289 -191 294 -193 300 -193 c 2
 343 -193 l 5
 343 -232 l 5
 118 -231 l 1
 118 -193 l 1
 153 -193 l 2
 160 -193 170 -191 176 -186 c 0
 182 -182 184 -178 184 -170 c 2
 184 -124 l 1xe8
 0 -124 l 1
 0 -67 l 1
 59 -13 74.0712890625 2.9560546875 113 67 c 0
 144 118 154 154 178 225 c 1
 200 229 213.012695312 232.958984375 232 239 c 0
 254 246 259 247 282 257 c 1
 279 215 l 1
 227 118 206.2890625 97.7587890625 163 46 c 0
 117 -9 103 -34 48 -86 c 1
 164 -86 l 1
 164 23 l 1xf0
EndSplineSet
EndChar
StartChar: timeSig5
Encoding: 57477 57477 9
Width: 324
Flags: W
HStem: 0 21G<125 153.5> 59 110 248 21G<35 65 35 35> 294 31<140 157> 406 77<156.5 177.5 131 187.5> 422 78
VStem: 14 54<53.5 130.5> 35 30<281 420>
LayerCount: 2
Fore
SplineSet
35 500 m 1xf5
 68 489 108 483 154 483 c 0xf9
 201 483 244 489 283 500 c 1
 280 463 268 437 248 422 c 0xf5
 234 412 207 406 168 406 c 0
 145 406 122 408 101 411 c 0
 80 414 68 417 65 420 c 2
 65 281 l 1xf9
 92 310 123 325 157 325 c 0
 203 325 239 312 267 286 c 0
 293 262 306 230 309 190 c 0
 312 141 296 97 259 58 c 0
 222 19 178 0 129 0 c 0
 121 0 114 1 106 2 c 0
 45 12 14 48 14 111 c 0
 14 150 33 169 72 169 c 0
 112 169 132 151 132 114 c 0
 132 93 126 79 115 70 c 0
 108 64 98 60 86 59 c 0
 74 58 68 56 68 54 c 0xfa
 68 53 69 51 72 48 c 0
 91 28 114 20 141 23 c 0
 167 26 188 39 204 63 c 0
 222 91 232 127 233 174 c 0
 234 205 226 233 210 256 c 0
 193 282 171 294 143 294 c 0
 109 294 83 279 65 248 c 1
 35 248 l 1
 35 500 l 1xf5
EndSplineSet
EndChar
StartChar: timeSig6
Encoding: 57478 57478 17
Width: 356
Flags: W
HStem: -240 20<127.996 220.217> 14 28<146.182 224.132> 222 11<196.076 231.8>
VStem: 0 116<-147.952 116.651> 243 90<124.805 204.322> 262 85<-175.871 -19.4409>
LayerCount: 2
Fore
SplineSet
262 -104 m 3xf4
 262 -21.9453125 226 14 184 14 c 3
 141 14 116 -23.9453125 116 -106 c 3
 116 -182.026367188 151.987304688 -220 191 -220 c 3
 228.013671875 -220 262 -178.02734375 262 -104 c 3xf4
243 203 m 3xf8
 243 208.098632812 239 212 233 216 c 0
 227 220 223 222 215 222 c 3
 197 222 164.94140625 198.639648438 158 193 c 0
 126 167 118 147.028320312 118 76 c 3
 118 59.029296875 118 37 130 21 c 1
 160 39 181.968780458 42 198 42 c 3
 232 42 261 48 299 16 c 0
 323.821289062 -4.90234375 347 -59.984375 347 -93 c 3xf4
 347 -139.010742188 333 -174 305 -201 c 0
 277 -228 198.01171875 -240 156 -240 c 3
 99.9912109375 -240 64.9311071218 -212.039287308 28 -160 c 0
 6 -129 0 -53.0078125 0 13 c 3
 0 75.0078125 15 117 53 168 c 0
 91 219 162.990234375 233 213 233 c 3
 258.010742188 233 293.813476562 227.102539062 316 199 c 0
 331 180 333 175 333 148 c 3
 333 131 327 118 316 106 c 0
 305 94 285.036132812 84 271 84 c 3
 248 84 211 108 211 142 c 3
 211 162 215 174 223 182 c 0
 234.044921875 193.044921875 243 192.950195312 243 203 c 3xf8
EndSplineSet
EndChar
StartChar: timeSig7
Encoding: 57479 57479 11
Width: 357
Flags: W
HStem: 0 21G<108 108 108 229> 372 128 422 33<52 93>
VStem: 16 19<380 485> 321 20<468 500>
LayerCount: 2
Fore
SplineSet
108 0 m 1xd8
 112 26 115 51 120 76 c 0
 133 127 155 167 186 198 c 0
 264 274 306 330 315 366 c 0
 317 374 319 386 322 403 c 1
 291 382 262 371 235 372 c 0xd8
 206 373 179 381 150 398 c 0
 121 415 100 422 86 422 c 0
 69 421 56 416 47 404 c 0
 42 396 39 388 35 380 c 1
 16 380 l 1
 16 485 l 1
 33 485 l 1
 41 464 48 455 56 455 c 0xb8
 64 455 79 462 102 478 c 0
 125 494 143 501 159 500 c 0
 181 499 201 492 222 477 c 0
 243 462 262 456 281 457 c 0
 300 458 313 471 321 500 c 1
 341 500 l 1
 341 436 340 395 339 376 c 0
 338 357 328 329 310 291 c 0
 305 281 288 250 257 198 c 0
 236 163 227 113 227 51 c 0
 227 40 227 29 228 17 c 0
 229 5 229 0 229 0 c 1
 108 0 l 1xd8
EndSplineSet
EndChar
StartChar: timeSig8
Encoding: 57480 57480 19
Width: 337
Flags: W
HStem: -200 23<95.5258 202.653> 236 19<128.969 205.735>
VStem: 0 38<-132.369 -25.4852> 28 64<113.493 193.669> 250 42<104.19 206.541> 252 83<-139.329 -22.8038>
LayerCount: 2
Fore
SplineSet
138 25 m 1xe4
 120 18 l 2
 66.1550354748 -2.93970842648 38 -36 38 -80 c 3
 38 -92.0537109375 43.037109375 -117.840820312 58 -134 c 0
 83 -161 96 -177 162 -177 c 3
 192 -177 202.416015625 -169.15625 226 -144 c 0
 241 -128 252 -111.014648438 252 -76 c 3
 252 -51.9791757011 237.402119952 -22.1522876694 216 -12 c 2
 138 25 l 1xe4
205 86 m 1
 230 104 l 2
 241.012667617 111.929120684 250 138 250 154 c 3
 250 192.052734375 225.640625 211.53125 219 217 c 0
 202 231 192 236 164 236 c 3
 141 236 122 224 114 216 c 0
 101 203 92 187 92 167 c 3xd8
 92 152 107.302698535 131.502852737 132 120 c 6
 205 86 l 1
234 70 m 1
 247 63 280.493164062 40.5068359375 298 23 c 0
 326 -5 335 -44 335 -70 c 0
 335 -123 314.426757812 -146.491210938 280 -176 c 0
 259 -194 202.012695312 -200 162 -200 c 3
 117.98828125 -200 67 -196 38 -167 c 0
 9 -138 0 -110 0 -63 c 3xe4
 0 -43 14 -17 35 4 c 0
 51 20 64 23 112 42 c 1
 45 71 28 95.9853515625 28 131 c 3
 28 170 43.7265625 192.33203125 74 217 c 0
 101 239 125 255 162 255 c 3
 201 255 229.481445312 244.390625 247 230 c 0
 275 207 292 185.015625 292 152 c 3
 292 137.041015625 291.21960747 123.524509337 274 102 c 0
 262 87 260 85 234 70 c 1
EndSplineSet
EndChar
StartChar: timeSig9
Encoding: 57481 57481 44
Width: 356
Flags: HW
HStem: -238 10<121.582 196.005> -36 36<135.675 222.83> 199 40<131.284 228.967>
VStem: 0 114<34.8272 170.63> 32 116<-174.692 -88.5741> 240 110<-96.1634 -17.5201 12.3205 151.066>
LayerCount: 2
Fore
SplineSet
114 113 m 3xf4
 114 30.9453125 134 0 176 0 c 0
 219 0 245 21.9453125 245 104 c 3
 245 180.026367188 220.999023438 200.053710938 182 199 c 0
 145 198 114 187.02734375 114 113 c 3xf4
108 -194 m 0
 103.049804688 -198.950195312 106 -207 112 -214 c 0
 124.10546875 -228.123046875 128 -228 144 -228 c 0
 153 -228 173.041015625 -220.081054688 181 -216 c 0
 220 -196 240 -182 240 -92 c 3
 240 -45 239 -28 233 -17 c 5
 185 -34 181 -36 139 -36 c 3
 105 -36 58.9990234375 -24.33203125 38 6 c 0
 20 32 0 75.984375 0 108 c 3xf4
 0 154.010742188 28 185 66 213 c 24
 100 238 135.98828125 239 178 239 c 3
 234.008789062 239 276.680664062 244.421875 310 190 c 0
 340 141 351.064453125 65.9990234375 350 0 c 0
 349 -62 318.3515625 -128.254882812 282 -178 c 0
 244 -230 221.009765625 -238 171 -238 c 3
 125.989257812 -238 92.76171875 -236.176757812 72 -208 c 0
 58 -189 32 -170 32 -144 c 3
 32 -128 37 -100 48 -88 c 0
 59 -76 79.9638671875 -72 94 -72 c 3
 135.194335938 -72 148 -89 148 -134 c 0xec
 148 -154 146.676757812 -157.76953125 132 -170 c 0
 120 -180 115 -187 108 -194 c 0
EndSplineSet
EndChar
StartChar: timeSigCommon
Encoding: 57482 57482 31
Width: 542
Flags: HW
HStem: -242 32<233.179 430.056> 102 86<367.75 476.635> 218 50<171.494 285.388>
VStem: 0 142<-108.179 133.828>
LayerCount: 2
Fore
SplineSet
142 12 m 31
 142 72 130 110 152 166 c 28
 165 198 189 218 224 218 c 31
 247 218 262 215 282 202 c 28
 303 188 306 172 322 152 c 28
 332 140 334.975585938 129.959960938 348 122 c 4
 366 111 387 102 408 102 c 7
 448 102 464.478515625 101.529296875 492 130 c 4
 521 160 532 212.810546875 532 255 c 4
 532 268 519.14453125 272.133789062 506 260 c 4
 493 248 490 223 478 211 c 4
 467 200 454 188 438 188 c 7
 407 188 394 190 370 208 c 4
 355.314453125 219.014648438 350.4765625 228.669921875 324 247 c 4
 298 265 263 268 224 268 c 7
 173 268 110 260 86 234 c 4
 58.166015625 203.845703125 42.5166015625 185.7890625 26 146 c 4
 4 93 0 58 0 0 c 7
 0 -47 4.4130859375 -75.7958984375 25 -118 c 4
 45 -159 60.19140625 -186.639648438 100 -208 c 4
 141 -230 239 -242 304 -242 c 7
 394 -242 471.234375 -227.95703125 492 -202 c 4
 524 -162 542 -118 542 -96 c 4
 542 -71.9794921875 528.46484375 -73.24609375 514 -94 c 4
 491 -127 491.90234375 -126.95703125 475 -154 c 4
 460 -178 442.038085938 -189.083007812 420 -199 c 4
 400 -208 340 -210 310 -210 c 7
 259 -210 240.629882812 -207.346679688 206 -170 c 4
 155 -115 142 -63 142 12 c 31
EndSplineSet
EndChar
StartChar: timeSigCutCommon
Encoding: 57483 57483 33
Width: 542
Flags: W
HStem: -254 32<256.885 430.056> 90 86<367.75 476.635> 206 50<171.494 268.355>
VStem: 0 142<-120.179 121.828> 225 30<-355 206 256 343>
LayerCount: 2
Fore
SplineSet
142 0 m 0
 142 60 130 98 152 154 c 0
 165 186 189 206 224 206 c 0
 224.065873855 206 224.131682086 205.999926009 224.197424999 205.999926009 c 2
 224.778451992 -200.137942113 l 1
 218.89592833 -195.254302758 212.757534067 -189.287678726 206 -182 c 0
 155 -127 142 -75 142 0 c 0
257.394630448 201.948894353 m 1
 265.366704694 199.504625812 273.199272296 195.720473007 282 190 c 0
 303 176 306 160 322 140 c 0
 332 128 334.975585938 117.959960938 348 110 c 0
 366 99 387 90 408 90 c 0
 448 90 464.478515625 89.529296875 492 118 c 0
 521 148 532 200.810546875 532 243 c 0
 532 256 519.14453125 260.133789062 506 248 c 0
 493 236 490 211 478 199 c 0
 467 188 454 176 438 176 c 0
 407 176 394 178 370 196 c 0
 355.314453125 207.014648438 350.4765625 216.669921875 324 235 c 0
 305.73693087 247.643663244 283.033244513 252.886297773 257.62183194 254.886842021 c 1
 258 343 l 1
 224 344 l 1
 224.125894149 255.999989562 l 1
 224.083934069 255.999989562 224.041969351 256 224 256 c 0
 173 256 110 248 86 222 c 0
 58.166015625 191.845703125 42.5166015625 173.7890625 26 134 c 0
 4 81 0 46 0 -12 c 0
 0 -59 4.4130859375 -87.7958984375 25 -130 c 0
 45 -171 60.19140625 -198.639648438 100 -220 c 0
 126.183323834 -234.049588399 175.61310066 -244.020851711 224.84891687 -249.392891857 c 1
 225 -355 l 1
 255 -356 l 1
 255.445702827 -252.151241225 l 1
 272.635166679 -253.375838795 289.175804996 -254 304 -254 c 0
 394 -254 471.234375 -239.95703125 492 -214 c 0
 524 -174 542 -130 542 -108 c 0
 542 -83.9794921875 528.46484375 -85.24609375 514 -106 c 0
 491 -139 491.90234375 -138.95703125 475 -166 c 0
 460 -190 442.038085938 -201.083007812 420 -211 c 0
 400 -220 340 -222 310 -222 c 0
 286.551378076 -222 270.000543645 -221.439101888 255.595694456 -217.203191847 c 1
 257.394630448 201.948894353 l 1
EndSplineSet
EndChar
StartChar: noteheadWhole
Encoding: 57506 57506 17
Width: 271
Flags: W
HStem: -130 33<39.5284 125.242> 86 44<140.187 219.81>
VStem: 0 38<-95.9308 -19.7726> 224 47<-7.59651 77.9153>
LayerCount: 2
Fore
SplineSet
193 86 m 3
 171.90497689 86 152 74 132 59 c 0
 86.6181640625 24.9638671875 38 -29.8876577597 38 -70 c 7
 38 -81.71484375 40.494140625 -84.638671875 48 -90 c 0
 55 -95 54.9443359375 -97 64 -97 c 3
 103.012695312 -97 122 -85 149 -64 c 0
 197.124808083 -26.5695937131 224 22.763671875 224 44 c 3
 224 55.044921875 223.583984375 65.6181640625 218 72 c 0
 211 80 202.646484375 86 193 86 c 3
194 130 m 3
 220.076809621 130 233 122 248 110 c 0
 258.505515392 101.595587686 271 79.5341796875 271 51 c 3
 271 -18.1809222257 228.601675802 -65.8559458554 192 -92 c 0
 164 -112 129.012695312 -130 90 -130 c 3
 67.9772844545 -130 41 -127 27 -114 c 0
 15.0029296875 -102.859375 0 -90 0 -68 c 3
 0 -14.9619140625 33.611328125 37.611328125 66 70 c 0
 101 105 159 130 194 130 c 3
EndSplineSet
EndChar
StartChar: noteheadHalf
Encoding: 57507 57507 16
Width: 361
Flags: W
HStem: -121 24<32.8851 125.764> 98 27<243.023 331.427>
VStem: 0 23<-89.4248 -40.932> 342 19<37.6756 87.8824>
AnchorPoint: "stemDownNW" 0 -55 basechar 0
AnchorPoint: "stemUpSE" 362 44 basechar 0
LayerCount: 2
Fore
SplineSet
304 98 m 3
 270.939453125 98 197.615234375 69.7900390625 150 46 c 0
 92.2060546875 17.1240234375 23 -36.263671875 23 -63 c 3
 23 -74.71484375 27.494140625 -84.638671875 35 -90 c 0
 42 -95 54.9443359375 -97 64 -97 c 3
 103.012695312 -97 187.432617188 -67.044921875 227 -45 c 0
 280.258789062 -15.3271484375 342 35.763671875 342 57 c 3
 342 68.044921875 340.583984375 80.6181640625 335 87 c 0
 328 95 313.646484375 98 304 98 c 3
271 125 m 3
 300.547851562 125 324.323242188 119.70703125 340 105.247070312 c 0
 353.504882812 92.7919921875 361 73.5341796875 361 45 c 3
 361 -8.005859375 280.803976644 -71.0505386083 241 -92 c 0
 222 -102 154.012818406 -121 115 -121 c 3
 100.857864376 -121 38 -120 24 -107 c 0
 12.0028678833 -95.8598058916 0 -76 0 -54 c 3
 0 -0.9619140625 67 63 105 81 c 0
 180.6171875 116.818359375 236 125 271 125 c 3
EndSplineSet
EndChar
StartChar: noteheadBlack
Encoding: 57508 57508 0
Width: 259
Flags: HW
AnchorPoint: "stemUpSE" 259 31 basechar 0
AnchorPoint: "stemDownNW" 1 -32 basechar 0
LayerCount: 2
Fore
SplineSet
0 -33 m 3
 0 80.017578125 103.971679688 103 175 103 c 3
 225 103 259 66.125 259 30 c 3
 259 -70 174 -103 94 -103 c 3
 46 -103 0 -74 0 -33 c 3
EndSplineSet
EndChar
StartChar: flagInternalDown
Encoding: 57937 57937 20
Width: 1000
Flags: HW
LayerCount: 2
Fore
SplineSet
0 -220 m 21
 86 -173 121 -149 204 -97 c 5
 217 -89 220.45703125 -86.14453125 225 -71 c 4
 228 -61 233 -35 235 0 c 5
 261 0 l 29
 261 0 262 -61 262 -100 c 31
 262 -128 256.51171875 -144.282226562 230 -164 c 5
 188 -198 96 -272 28 -319 c 5
 23.34375 -322.462890625 18.1231056256 -324 14 -324 c 7
 5.9377422517 -324 -6.12323399574e-16 -321 0 -311 c 6
 0 -311 0 -255 0 -220 c 21
EndSplineSet
EndChar
StartChar: accidentalFlat
Encoding: 57952 57952 2
Width: 186
Flags: HW
HStem: 98 46<28.843 118.955>
VStem: 0 28<-101 95.474 126 324> 125 61<-12.4075 92.3807>
AnchorPoint: "stemUpSE" 29 144 basechar 0
LayerCount: 2
Fore
SplineSet
28 92 m 1
 28 -101 l 1
 49 -75 66 -57 89 -28 c 4
 102.108335789 -11.4720983532 119 17.9821485478 119 46 c 7
 119 66 107.079872408 98 82 98 c 7
 59.9091796875 98 42 97 28 92 c 1
0 324 m 1
 26 324 l 1
 28 126 l 1
 50 133 65.7294921875 144 112 144 c 3
 147.014648438 144 186 112.112304688 186 72 c 3
 186 9.7099609375 158.104492188 -28.0947265625 122 -68 c 0
 84 -110 51 -134 0 -159 c 1
 0 324 l 1
EndSplineSet
EndChar
StartChar: articAccentAbove
Encoding: 58528 58528 34
Width: 329
Flags: W
HStem: 0 231
VStem: 0 329
LayerCount: 2
Fore
SplineSet
0 231 m 1
 69 199 88.62890625 192.919921875 134 177 c 0
 191 157 216 148 329 115 c 1
 214 90 182 79 142 66 c 0
 103.804202882 53.5863659367 82 44 0 0 c 1
 0 26 l 1
 70 63 89 71 130 85 c 0
 163.284179688 96.365234375 202 106 255 115 c 1
 194 134 168 140 125 154 c 0
 89.9339017028 165.416869213 62 174 0 200 c 1
 0 231 l 1
EndSplineSet
EndChar
StartChar: articMarcatoAbove
Encoding: 58540 58540 33
Width: 187
Flags: W
HStem: 7 206
VStem: 0 187
LayerCount: 2
Fore
SplineSet
0 7 m 1
 84 213 l 1
 123 213 l 1
 187 9 l 5
 114 8 l 1
 77 103 l 1
 35 7 l 1
 0 7 l 1
EndSplineSet
EndChar
StartChar: fermataAbove
Encoding: 58560 58560 24
Width: 500
Flags: HW
HStem: 1 102<201.764 291.174> 163 77<149.504 350.704>
VStem: 0 13<-15.6923 -7.90667> 189 114<14.1592 90.6543> 487 13<-15.6923 -7.90667>
LayerCount: 2
Fore
SplineSet
248 163 m 7
 166.944335938 163 125.047851562 135.109375 95 107 c 4
 64 78 45 40 13 -18 c 5
 0 -13 l 5
 12 42 25.955078125 75.49609375 33 90 c 4
 50 125 96 182 120 200 c 4
 161.291992188 230.96875 200.908203125 240 250 240 c 7
 299.091796875 240 338.708007812 230.96875 380 200 c 4
 404 182 450 125 467 90 c 4
 474.044921875 75.49609375 488 42 500 -13 c 5
 487 -18 l 5
 455 40 436 78 405 107 c 4
 374.952148438 135.109375 329.055664062 163 248 163 c 7
189 54 m 0
 189 80 214 103 245 103 c 0
 276 103 303 78 303 52 c 0
 303 26 277 1 246 1 c 0
 215 1 189 28 189 54 c 0
EndSplineSet
EndChar
StartChar: restQuarter
Encoding: 58597 58597 3
Width: 315
Flags: HW
HStem: -190.883 150.04<37.137 121.993> 40.0947 150<194.323 278.728>
VStem: 17.7461 104.901<-166.747 -100.611> 192.97 104.992<73.8134 160.932>
LayerCount: 2
Fore
SplineSet
-0.0302734375 196.094726562 m 1
 32 196 l 1
 96 132 l 1
 122.57421875 109.873046875 144.814453125 96 174 96 c 3
 182.23046875 96 189 102.822265625 189 114 c 0
 189 134.196289062 180 138.325195312 180 155 c 0
 180 173.008789062 202.637695312 190.094726562 223.969726562 190.094726562 c 0
 243.01171875 190.094726562 267.069335938 184.255859375 279.969726562 167.094726562 c 0
 293.431640625 149.186523438 297.961914062 126.047851562 297.961914062 95.86328125 c 0
 297.961914062 59.33203125 271.752929688 40.0947265625 231.969726562 40.0947265625 c 0
 203.624023438 40.0947265625 160 63 114 85 c 1
 315.217773438 -198.037109375 l 1
 286 -198 l 1
 225 -136 l 1
 198.540039062 -113.736328125 173.185546875 -98 144 -98 c 3
 135.770507812 -98 128.057286229 -102.823240486 128 -114 c 0
 127.896484375 -134.196289062 135.0859375 -142.325195312 135 -159 c 0
 134.907226562 -177.008789062 112.583002013 -190.993312785 91.2509765625 -190.8828125 c 0
 72.2099609375 -190.784179688 48.1826171875 -184.821289062 35.3701171875 -167.59375 c 0
 22.0009765625 -149.6171875 17.58984375 -126.455078125 17.74609375 -96.2705078125 c 0
 17.9345703125 -59.740234375 44.2421951424 -40.6371876579 84.0244140625 -40.8427734375 c 0
 112.370117188 -40.9892578125 156.114257812 -63.763671875 202 -86 c 13
 -0.0302734375 196.094726562 l 1
EndSplineSet
EndChar
StartChar: rest8th
Encoding: 58598 58598 14
Width: 219
Flags: HWO
HStem: 48 46<64.4061 134.85>
VStem: 0 64<94.3092 151.369>
LayerCount: 2
Fore
SplineSet
162 -196 m 1
 142 -196 l 1
 190 126 l 1
 158 84 114.01953125 48 88 48 c 3
 56.451171875 48 34.2236328125 51.970703125 20 62.2822265625 c 0
 6.271484375 72.236328125 0 88.09765625 0 112 c 3
 0 147 15.9878066912 199 57 199 c 3
 73.8173828125 199 111 192 111 165 c 3
 111 154 106.071289062 153.071289062 99 146 c 4
 93 140 91 134.021484375 91 126 c 3
 91 120.7109375 93.9501243789 110 104 110 c 3
 128.021484375 110 137.000143737 111.999845997 152 126 c 0
 175.72265625 148.141601562 186 157 219 202 c 1
 162 -196 l 1
EndSplineSet
EndChar
StartChar: restQuarterZ
Encoding: 58614 58614 13
Width: 365
Flags: W
HStem: -180 37<329.521 347.459> -137 62<67.7611 251.541>
VStem: 278 87<177.284 317.827>
LayerCount: 2
Fore
SplineSet
195 469 m 1
 272 418 365 347 365 217 c 1
 329 149 321.432797466 137.107273053 285 92 c 0
 264 66 250 52 205 8 c 1
 220 -23 264.712821062 -73.3047624143 287 -94 c 0
 301 -107 327 -123 358 -143 c 1
 345 -180 l 1
 326.975585938 -174 290.278245131 -161.551082632 256 -153 c 0
 207.994140625 -141.024414062 187.23046875 -137 146 -137 c 3
 119 -137 79 -139 7 -177 c 1
 2 -150 3 -158 0 -140 c 1
 76 -82 113 -75 179 -75 c 3
 210.333007812 -75 235.666992188 -85 265 -105 c 1
 141 -7 l 1
 157 13 209 68.0000000002 233 101 c 0
 254.7734375 130.938476562 278 175 278 245 c 3
 278 296.009802979 262 334 238 376 c 0
 227.451823208 394.459309385 202 423 178 444 c 1
 195 469 l 1
EndSplineSet
EndChar
StartChar: dynamicPiano
Encoding: 58656 58656 18
Width: 229
Flags: HW
LayerCount: 2
Fore
SplineSet
136 214 m 3
 136 209 140.349609375 193.240234375 143 189 c 0
 148 181 151 178 161 178 c 3
 176 178 190 194 197 207 c 0
 204 220 212 241.98046875 212 268 c 3
 212 275.071289062 208 280 206 282 c 0
 201.47265625 286.52734375 197 288 190 288 c 27
 176 288 165 285 157 274 c 0
 142.155273438 253.588867188 136 239 136 214 c 3
-10 4 m 1
 -10 34 l 1
 9 36 19 39 34 50 c 24
 46 59 50 66 56 82 c 9
 90 250 l 1
 78 252 68 252 63 241 c 0
 54.46875 222.232421875 54 212 51 191 c 1
 24 190 l 1
 27 214 30.6220703125 245.727539062 40 268 c 0
 48 287 55 308 76 308 c 3
 94 308 99 294 117 294 c 3
 137 294 148 315 171 315 c 3
 195 315 215.416992188 308.583007812 229 295 c 0
 234 290 239 274.049804688 239 264 c 3
 239 239 230 191 217 171 c 4
 204.899414062 152.383789062 184 136 162 136 c 3
 142 136 129 154 119 174 c 9
 94 70 l 1
 92 61 94 56 98 50 c 0
 102.771484375 42.8427734375 110 36 118 31 c 1
 118 3 l 1
 -10 4 l 1
EndSplineSet
EndChar
StartChar: dynamicMezzo
Encoding: 58657 58657 68
Width: 368
Flags: HW
LayerCount: 2
Fore
SplineSet
13 0 m 1
 48.322265625 171.438476562 l 1
 51.767578125 182.638671875 53.4912109375 190.391601562 53.4912109375 202.453125 c 27
 53.4912109375 215.375 45.7373046875 224.8515625 32.814453125 224.8515625 c 3
 17.3076171875 224.8515625 10.416015625 215.375 0.939453125 200.729492188 c 9
 -24.0439453125 217.959960938 l 1
 -14.5673828125 233.466796875 -9.2197265625 244.525390625 0.939453125 257.588867188 c 0
 13 273.095703125 25.0615234375 281.7109375 44.8759765625 281.7109375 c 3
 62.10546875 281.7109375 69.859375 267.926757812 83.6435546875 248.973632812 c 1
 100.873046875 264.48046875 118.090820312 279.987304688 148.255859375 279.987304688 c 3
 183.577148438 279.987304688 190.469726562 262.7578125 208.560546875 233.466796875 c 1
 235.267578125 254.142578125 261.112304688 279.987304688 299.018554688 279.987304688 c 3
 326.586914062 279.987304688 368.799804688 248.233398438 368.799804688 220.543945312 c 3
 368.799804688 192.9765625 365.51953125 180.020507812 360.184570312 153.34765625 c 1
 352.431640625 114.580078125 349.958007812 106.373046875 339.508789062 68.05859375 c 1
 336.924804688 58.58203125 335.09375 50.734375 340.370117188 44.7978515625 c 0
 347.262695312 37.044921875 351.5703125 35.3212890625 362.76953125 29.291015625 c 1
 362.76953125 0.861328125 l 1
 263 0 l 1
 300 160 l 1
 301.72265625 168.615234375 307 187.938476562 307 200 c 3
 307 211.19921875 299.67578125 235 279 235 c 7
 257.462890625 235 237.168945312 219.291015625 232 190 c 1
 217.354492188 109.01953125 212.784179688 79.2587890625 199 0 c 1
 174.877929688 0 159.844726562 0 134 0 c 1
 149.506835938 66.3359375 159.384765625 101.21875 168 171 c 1
 169.72265625 188.229492188 170 191.354492188 170 206 c 3
 170 221.506835938 159.506835938 231 144 231 c 3
 119.877929688 231 114.168945312 210.3984375 109 188 c 1
 70 0 l 1
 13 0 l 1
EndSplineSet
EndChar
StartChar: dynamicForte
Encoding: 58658 58658 4
Width: 212
Flags: HW
LayerCount: 2
Fore
SplineSet
-10 -40 m 5
 79 253 l 5
 25 253 l 5
 35 280 l 5
 92 280 l 5
 98 303 102 324 112 346 c 4
 122.008789062 368.018554688 137 386 158 398 c 4
 162.223632812 400.413085938 173 404 198 404 c 7
 212 404 228 401 242 388 c 4
 251.858398438 378.845703125 252 363 252 350 c 7
 252 340 248.358398438 331.501953125 243 324 c 4
 238 317 232 313 223 313 c 7
 210 313 198 321.350585938 198 334 c 7
 198 345.044921875 212 345.75390625 212 354 c 7
 212 368 202 372 192 372 c 7
 182 372 168.732421875 361.172851562 163 352 c 4
 148 328 139 311 133 280 c 5
 216 280 l 5
 212 254 l 5
 126 253 l 5
 56 -40 l 5
 -10 -40 l 5
EndSplineSet
EndChar
StartChar: dynamicRinforzando
Encoding: 58659 58659 21
Width: 321
Flags: HW
LayerCount: 2
Fore
SplineSet
0 0 m 13
 52 208 l 1
 46 220 44 224 40 227 c 0
 34.73046875 230.952148438 32 232 21 232 c 3
 17.900390625 232 9.10824457517 231.054122288 7 230 c 1
 4 237 4 240 4 248 c 24
 4 254 8 260 8 260 c 1
 22 260 41 257 50 254 c 0
 62.9033203125 249.69921875 66 248 76 236 c 1
 99 247 106 259 130 268 c 0
 153.12562476 276.672109285 170 281 196 281 c 27
 231 281 260.983013247 267.315118465 280 251.469771582 c 0
 311.637713625 225.108573907 321 190 321 190 c 1
 321 190 313 172 304 164 c 0
 291.833057789 153.184940257 284 149 268 142 c 1
 268 142 254 180 234 198 c 0
 220.855618707 209.829943164 195.703125 216 176 216 c 3
 137.881762895 216 109 188 109 188 c 1
 64 0 l 1
 0 0 l 13
EndSplineSet
EndChar
StartChar: dynamicSforzando
Encoding: 58660 58660 22
Width: 315
Flags: HW
LayerCount: 2
Fore
SplineSet
104 124 m 24
 127 104 162 102.313476562 162 71 c 3
 162 65.3525161784 153.165039062 42.185546875 141 33 c 0
 126.905273438 22.357421875 90.681640625 13 82 13 c 3
 74.3994140625 13 54.8349266412 17.4276561432 33 27 c 0
 12.8359375 35.83984375 5 59.546875 5 67 c 3
 5 77.671875 13.3556695016 85.9364073537 19.9999997506 85.9364073537 c 3
 25.1934092195 85.9364073537 31.1741206075 79.9679077102 36 69 c 1
 43 71 46 72 52 77 c 0
 56.9190162951 81.0991802459 59 88 60 98 c 1
 48 115 39.0083992884 118 15 118 c 3
 -8.34836880951 118 -21 98.0227155455 -21 76 c 3
 -21 51 -11.1291725156 34.9872276812 6 19 c 0
 21 5 41 0 82 0 c 3
 126.102154142 0 155 9 170 26 c 0
 187.927734375 46.318359375 192 62.8950268255 192 82 c 3
 192 119.997070312 129 133 90 167 c 24
 67 187 32 188.686523438 32 220 c 3
 32 225.647460938 40.8349609375 248.814453125 53 258 c 0
 67.0947265625 268.642578125 103.318359375 278 112 278 c 3
 119.600585938 278 139.165039062 273.572265625 161 264 c 0
 181.1640625 255.16015625 189 231.453125 189 224 c 3
 189 213.328125 180.64453125 205.063476562 174 205.063476562 c 3
 168.806640625 205.063476562 162.826171875 211.032226562 158 222 c 1
 151 220 148 219 142 214 c 0
 137.081054688 209.900390625 135 203 134 193 c 1
 146 176 154.991210938 173 179 173 c 3
 202.348632812 173 215 192.977539062 215 215 c 3
 215 240 205.12890625 256.012695312 188 272 c 0
 173 286 153 291 112 291 c 3
 67.8974609375 291 39 282 24 265 c 0
 6.072265625 244.681640625 2 228.104492188 2 209 c 3
 2 171.002929688 65 158 104 124 c 24
EndSplineSet
EndChar
StartChar: dynamicZ
Encoding: 58661 58661 23
Width: 342
Flags: HW
LayerCount: 2
Fore
SplineSet
167 253 m 1
 74 253 l 1
 46 253 35 251 28 241 c 0
 21 231 21 215 17 200 c 1
 0 200 l 1
 0 279 l 1
 241 279 l 1
 75 26 l 17
 168 26 l 1
 196 26 207 28 214 38 c 0
 221 48 221 64 225 79 c 1
 242 79 l 1
 242 0 l 1
 0 0 l 1
 167 253 l 1
EndSplineSet
EndChar
StartChar: dynamicNiente
Encoding: 58662 58662 25
Width: 239
Flags: HW
LayerCount: 2
Fore
SplineSet
149.439453125 234.533203125 m 3
 125.317382812 234.533203125 114.168945312 210.3984375 109 188 c 1
 70 0 l 1
 13 0 l 1
 48.322265625 171.438476562 l 1
 51.767578125 182.638671875 53.4912109375 190.391601562 53.4912109375 202.453125 c 27
 53.4912109375 215.375 45.7373046875 224.8515625 32.814453125 224.8515625 c 3
 17.3076171875 224.8515625 10.416015625 215.375 0.939453125 200.729492188 c 9
 -24.0439453125 217.959960938 l 1
 -14.5673828125 233.466796875 -9.2197265625 244.525390625 0.939453125 257.588867188 c 0
 13 273.095703125 25.0615234375 281.7109375 44.8759765625 281.7109375 c 3
 62.10546875 281.7109375 69.859375 267.926757812 83.6435546875 248.973632812 c 1
 100.873046875 264.48046875 109.911840902 280 161 280 c 3
 204.011626335 280 239.239257812 247.766601562 239.239257812 220.077148438 c 3
 239.239257812 192.509765625 235.958984375 179.553710938 230.624023438 152.880859375 c 1
 222.87109375 114.11328125 220.397460938 105.90625 209.948242188 67.591796875 c 1
 207.364257812 58.115234375 205.533203125 50.267578125 210.809570312 44.3310546875 c 0
 217.702148438 36.578125 222.009765625 34.8544921875 233.208984375 28.82421875 c 1
 233.208984375 0.39453125 l 1
 134 0 l 1
 170.439453125 159.533203125 l 1
 172.162109375 168.1484375 177.439453125 187.471679688 177.439453125 199.533203125 c 3
 177.439453125 210.732421875 170.115234375 234.533203125 149.439453125 234.533203125 c 3
EndSplineSet
EndChar
StartChar: dynamicPP
Encoding: 58667 58667 6
Width: 511
Flags: HW
LayerCount: 2
Fore
SplineSet
408 210 m 7
 408 205 412.349609375 189.240234375 415 185 c 4
 420 177 423 174 433 174 c 7
 448 174 462 190 469 203 c 4
 476 216 481 231.859375 481 264 c 7
 481 271.071289062 480 276 478 278 c 4
 473.47265625 282.52734375 469 284 462 284 c 31
 448 284 437 281 429 270 c 4
 414.155273438 249.588867188 408 235 408 210 c 7
262 0 m 5
 262 30 l 5
 281 32 291 35 306 46 c 28
 318 55 322 62 328 78 c 13
 362 246 l 5
 351 246 339.125 246.796875 335 237 c 4
 327 218 326 208 323 187 c 5
 296 186 l 5
 299 210 302.622070312 241.727539062 312 264 c 4
 320 283 327 304 348 304 c 7
 366 304 371 290 389 290 c 7
 409 290 423 311 443 311 c 7
 470 311 489 306 501 291 c 4
 509 281 511 275.033203125 511 260 c 7
 511 227 508 195 492 170 c 4
 480.03125 151.298828125 456 132 434 132 c 7
 414 132 401 150 391 170 c 13
 366 66 l 5
 364 57 366 52 370 46 c 4
 374.771484375 38.8427734375 382 32 390 27 c 5
 390 -1 l 5
 262 0 l 5
146 214 m 7
 146 209 150.349609375 193.240234375 153 189 c 4
 158 181 161 178 171 178 c 7
 186 178 200 194 207 207 c 4
 214 220 219 235.859375 219 268 c 7
 219 275.071289062 218 280 216 282 c 4
 211.47265625 286.52734375 207 288 200 288 c 31
 186 288 175 285 167 274 c 4
 152.155273438 253.588867188 146 239 146 214 c 7
0 4 m 5
 0 34 l 5
 19 36 29 39 44 50 c 28
 56 59 60 66 66 82 c 13
 100 250 l 5
 89 250 77.125 250.796875 73 241 c 4
 65 222 64 212 61 191 c 5
 34 190 l 5
 37 214 40.6220703125 245.727539062 50 268 c 4
 58 287 65 308 86 308 c 7
 104 308 109 294 127 294 c 7
 147 294 161 315 181 315 c 7
 208 315 227 310 239 295 c 4
 247 285 249 279.033203125 249 264 c 7
 249 231 246 199 230 174 c 4
 218.03125 155.298828125 194 136 172 136 c 7
 152 136 139 154 129 174 c 13
 104 70 l 5
 102 61 104 56 108 50 c 4
 112.771484375 42.8427734375 120 36 128 31 c 5
 128 3 l 5
 0 4 l 5
EndSplineSet
EndChar
StartChar: dynamicFF
Encoding: 58671 58671 16
Width: 500
Flags: HW
LayerCount: 2
Fore
SplineSet
238 -6 m 5
 326 284 l 29
 276 284 l 5
 276 314 l 5
 339 313 l 5
 346 339 350 358 360 380 c 4
 370.008789062 402.018554688 385.2421875 419.544921875 406 432 c 4
 411 435 422 438 446 438 c 7
 467 438 473.698242188 436.671875 490 422 c 4
 500 413 500 397 500 384 c 7
 500 374 496.358398438 365.501953125 491 358 c 4
 486 351 480 347 471 347 c 7
 458 347 446 355.350585938 446 368 c 7
 446 379.044921875 460 379.75390625 460 388 c 7
 460 402 450 406 440 406 c 7
 430 406 416.732421875 395.172851562 411 386 c 4
 396 362 387 345 381 314 c 5
 464 314 l 5
 464 282 l 5
 373 282 l 5
 319 -6 l 5
 238 -6 l 5
0 0 m 5
 88 290 l 29
 38 290 l 5
 38 320 l 5
 101 319 l 5
 108 345 112 364 122 386 c 4
 132.008557982 408.01882756 147.241942044 425.545165226 168 438 c 4
 173 441 184 444 208 444 c 7
 229 444 235.698242188 442.671875 252 428 c 4
 262 419 262 403 262 390 c 7
 262 380 258.358398438 371.501953125 253 364 c 4
 248 357 242 353 233 353 c 7
 220 353 208 361.350585938 208 374 c 7
 208 385.044921875 222 385.753788749 222 394 c 7
 222 408 212 412 202 412 c 7
 192 412 178.732421875 401.172851562 173 392 c 4
 158 368 149 351 143 320 c 5
 226 320 l 5
 226 288 l 5
 135 288 l 5
 81 0 l 5
 0 0 l 5
EndSplineSet
EndChar
StartChar: tuplet3
Encoding: 59523 59523 7
Width: 1000
Flags: H
LayerCount: 2
Fore
SplineSet
9 73 m 3
 9 89 13 96 21 102 c 0
 27.2481997407 106.686149806 36 111 44 111 c 3
 52 111 64.0701056936 110.082766548 70 105 c 0
 77 99 79 91 79 82 c 3
 79 73.987851173 74.6197790799 68.0247238499 69 61 c 4
 65 56 64 54 64 46 c 3
 64 42 71.7376518842 37.5082320772 77 34 c 4
 80 32 87 31 102 31 c 3
 118 31 133.91015625 36.0751953125 144 48 c 0
 155 61 157 77 157 94 c 3
 157 110 150 121 136 129 c 0
 122 137 108 138 84 138 c 9
 84 152 l 17
 104 152 119 152 128 159 c 0
 142.054016672 169.930901856 146 183 146 201 c 3
 146 219 126 225 124 226 c 0
 119.065768471 228.467115764 108.82429707 228.459525025 101.000000354 228.459525025 c 3
 93.5492451033 228.459525025 85.8579524147 227.214960346 82 224 c 0
 76 219 75 213 75 207 c 27
 75 198 74.5317266744 194.375635566 69 187 c 0
 63 179 56 175 46 175 c 3
 36 175 30.5166481892 175.483351811 23 183 c 0
 16 190 13 201 13 211 c 3
 13 226 20.8745660355 239.201123688 32 246 c 0
 50 257 76 260 108 260 c 3
 142 260 151.489295133 258.096748109 181 242 c 0
 192 236 207 216 207 203 c 3
 207 185 200.495713411 175.994284548 190 162 c 0
 184 154 178 150 169 144 c 1
 182 138 190 132 194 127 c 0
 204.747659984 113.565425021 212 103 212 86 c 3
 212 68 207 49 196 38 c 0
 170.260924648 12.2609246475 138 6 102 6 c 3
 73 6 51 13 41 22 c 0
 27.9976627685 33.7021035083 9 55 9 73 c 3
EndSplineSet
EndChar
